<svg xmlns="http://www.w3.org/2000/svg" width="619.525" height="322.36"><defs><style>.a{fill:none}.b{clip-path:url(#a)}.c{fill:#f7908a}.d{fill:#e692bb}.e{fill:#ff8200}.f{fill:#929dc3}.g{fill:#34b9ad}.h{fill:#2d9fd7}.i{fill:#57b84c}.j{fill:#74d6e8}.k{fill:#b8dc8e}</style><clipPath id="a"><path class="a" d="M0 70.367h619.525v-322.36H0z" transform="translate(0 251.993)"/></clipPath></defs><g class="b"><path class="c" d="M72.133 290.464V180.747H61.501v109.717c0 15.765-5.317 22.181-16.958 22.181s-16.956-6.416-16.956-22.274v-5.855h.041V174.641c0-21.847-9.363-31.944-27.629-31.944v9.73c11.658 0 16.982 6.426 16.982 22.3v6.015h-.026v109.722c0 21.815 9.349 31.9 27.588 31.9s27.589-10.174 27.589-31.9"/><path class="d" d="M165.318 248.298c8.158 0 15.581-4.124 18.514-11.182v9.9h10.266V177.63h-10.265v27.314c-2.934-7.241-10.357-11.272-18.607-11.272-13.015 0-24.014 9.166-24.014 27.222 0 18.147 11.091 27.405 24.106 27.405m2.566-8.8c-9.807 0-16.406-6.967-16.406-18.607 0-11.549 6.6-18.516 16.223-18.516 9.807 0 16.406 7.058 16.406 18.516.001 11.55-6.507 18.607-16.223 18.607"/><path class="e" d="M83.469 247.106h10.266v-26.4c0-11.544 4.034-18.053 13.934-18.053 9.715 0 14.115 5.407 14.115 16.864v27.589h10.263v-28.413c0-16.59-6.69-24.931-21.173-24.931-8.8 0-14.756 3.941-17.139 10.449v-9.533H83.469z"/><path class="f" d="M204.821 220.892c0 16.407 10.632 27.223 26.947 27.223 11.824 0 20.073-4.949 24.289-14.665l-9.436-1.467c-2.566 5.04-7.333 7.516-14.665 7.516-10.174 0-16.5-5.774-16.864-15.948h41.7c1.283-17.601-8.8-29.881-25.482-29.881-15.673 0-26.489 11.091-26.489 27.222m10.541-5.407c1.191-9.075 7.333-13.657 16.131-13.657 9.258 0 14.94 5.317 15.673 13.657z"/><path class="g" d="M395.568 176.068c13.382 0 26.489-8.341 26.489-27.405 0-18.882-13.2-27.222-26.581-27.222s-26.488 8.341-26.488 27.222c0 19.065 13.106 27.405 26.58 27.405m0-8.8c-9.808 0-16.315-6.967-16.315-18.607.002-11.547 6.509-18.517 16.225-18.517s16.315 7.059 16.315 18.516c0 11.552-6.507 18.61-16.225 18.61"/><path class="h" d="M452.397 175.885c8.708 0 14.757-4.033 17.048-10.541v9.533h10.266v-52.428h-10.266v26.4c0 11.549-4.033 18.056-13.932 18.056s-14.023-5.41-14.023-16.776v-27.68h-10.266v28.505c0 16.5 6.69 24.931 21.173 24.931"/><path class="i" d="M492.267 174.877h10.266v-26.4c0-11.544 4.034-18.053 13.934-18.053 9.715 0 14.115 5.407 14.115 16.864v27.589h10.263v-28.413c0-16.59-6.69-24.931-21.173-24.931-8.8 0-14.756 3.941-17.139 10.449v-9.533h-10.266z"/><path class="j" d="M351.666 126.482l9.716-1.925c-3.391-11.09-12.466-17.047-25.939-17.047-13.657 0-23.006 7.606-23.006 18.7 0 25.572 39.046 14.665 39.046 30.339 0 6.325-5.224 9.991-14.39 9.991-8.433 0-14.757-3.849-17.506-10.724h-.018c-3.015-12.886-11.563-18.475-25.502-18.475-17.686 0-26.75 9.776-26.75 30.927v79.186h10.309v-79.1c0-15.375 5.154-21.6 16.441-21.6 8.672 0 13.5 2.909 15.676 11.612l.037-.006c3.555 11.032 13.786 17.432 27.4 17.432 15.032 0 24.748-7.608 24.748-19.249 0-25.939-39.229-13.84-39.229-30.339 0-5.774 4.765-9.258 13.015-9.258 7.975 0 13.107 3.208 15.948 9.533"/><path class="k" d="M619.525 9.42V0c-17.686 0-26.75 9.776-26.75 30.927v101.824c-2.941-7.225-10.354-11.248-18.594-11.248-13.015 0-24.014 9.166-24.014 27.222 0 18.147 11.09 27.405 24.106 27.405 8.156 0 15.581-4.124 18.514-11.182v9.9h10.266V137.31h.032V31.017c0-15.375 5.154-21.6 16.441-21.6m-26.462 139.3c0 11.548-6.508 18.605-16.223 18.605-9.808 0-16.408-6.965-16.408-18.605 0-11.549 6.6-18.516 16.223-18.516 9.808 0 16.408 7.058 16.408 18.516"/></g></svg>